<?xml version="1.0" encoding="UTF-8"?>
<svg width="14px" height="14px" viewBox="0 0 14 14" version="1.1" xmlns="http://www.w3.org/2000/svg" xmlns:xlink="http://www.w3.org/1999/xlink">
    <title>关闭</title>
    <g id="切图" stroke="none" stroke-width="1" fill="none" fill-rule="evenodd">
        <g id="画板" transform="translate(-57.000000, -398.000000)" fill="#FFFFFF" fill-rule="nonzero">
            <g id="关闭" transform="translate(57.000000, 398.000000)">
                <path d="M8.08242525,7.00175033 L13.7837925,1.30030047 C14.0720692,1.00960589 14.0720692,0.540789395 13.7837925,0.250094814 L13.7522933,0.218588631 C13.4616624,-0.0697511821 12.9929486,-0.0697511821 12.7023177,0.218588631 L7.00211706,5.92820676 L1.30191641,0.216254852 C1.01128552,-0.0720849506 0.542571747,-0.0720849506 0.25194086,0.216254852 L0.221608237,0.247761019 C0.079922424,0.385713146 0,0.575090092 0,0.772863848 C0,0.970637605 0.079922424,1.16001455 0.221608237,1.29796668 L5.92180888,7.00175033 L0.221608237,12.7032002 C-0.0666683886,12.9938948 -0.0666683886,13.4627113 0.221608237,13.7534059 L0.25194086,13.7837451 C0.542571747,14.0720849 1.01128552,14.0720849 1.30191641,13.7837451 L7.00211706,8.08229528 L12.7023177,13.7837451 C12.9929486,14.072085 13.4616624,14.072085 13.7522933,13.7837451 L13.7837925,13.752239 C14.0712986,13.461682 14.0712986,12.9937571 13.7837925,12.7032002 L8.08242525,7.00175033 Z" id="路径"></path>
            </g>
        </g>
    </g>
</svg>